<?xml version="1.0" encoding="UTF-8"?>
<svg xmlns="http://www.w3.org/2000/svg" xmlns:xlink="http://www.w3.org/1999/xlink" width="135pt" height="135.000003pt" viewBox="0 0 135 135.000003" version="1.2">
<defs>
<clipPath id="clip1">
  <path d="M 0.496094 0 L 134.503906 0 L 134.503906 134.007812 L 0.496094 134.007812 Z M 0.496094 0 "/>
</clipPath>
<clipPath id="clip2">
  <path d="M 29.144531 28.648438 L 105.828125 28.648438 L 105.828125 105.332031 L 29.144531 105.332031 Z M 29.144531 28.648438 "/>
</clipPath>
</defs>
<g id="surface1">
<g clip-path="url(#clip1)" clip-rule="nonzero">
<path style=" stroke:none;fill-rule:nonzero;fill:rgb(65.879822%,69.799805%,39.219666%);fill-opacity:1;" d="M 67.5 0 C 66.402344 0 65.308594 0.0273438 64.210938 0.0820312 C 63.117188 0.132812 62.023438 0.214844 60.933594 0.324219 C 59.839844 0.429688 58.753906 0.5625 57.667969 0.726562 C 56.582031 0.886719 55.503906 1.074219 54.429688 1.289062 C 53.351562 1.5 52.28125 1.742188 51.21875 2.007812 C 50.15625 2.273438 49.097656 2.566406 48.050781 2.886719 C 47 3.203125 45.960938 3.546875 44.925781 3.917969 C 43.894531 4.285156 42.871094 4.679688 41.859375 5.101562 C 40.84375 5.519531 39.84375 5.964844 38.851562 6.433594 C 37.859375 6.902344 36.882812 7.394531 35.914062 7.910156 C 34.949219 8.429688 33.992188 8.96875 33.054688 9.53125 C 32.113281 10.097656 31.1875 10.683594 30.273438 11.292969 C 29.363281 11.902344 28.464844 12.53125 27.585938 13.1875 C 26.707031 13.839844 25.839844 14.511719 24.992188 15.210938 C 24.144531 15.90625 23.316406 16.621094 22.503906 17.355469 C 21.691406 18.09375 20.898438 18.847656 20.121094 19.625 C 19.347656 20.398438 18.589844 21.195312 17.855469 22.007812 C 17.117188 22.820312 16.402344 23.648438 15.707031 24.496094 C 15.011719 25.34375 14.335938 26.207031 13.683594 27.089844 C 13.027344 27.96875 12.398438 28.867188 11.789062 29.777344 C 11.179688 30.691406 10.59375 31.617188 10.027344 32.558594 C 9.464844 33.496094 8.925781 34.453125 8.40625 35.417969 C 7.890625 36.386719 7.398438 37.363281 6.929688 38.355469 C 6.460938 39.347656 6.015625 40.347656 5.597656 41.363281 C 5.175781 42.375 4.78125 43.398438 4.414062 44.429688 C 4.042969 45.464844 3.699219 46.503906 3.382812 47.554688 C 3.0625 48.601562 2.769531 49.660156 2.503906 50.722656 C 2.238281 51.785156 1.996094 52.855469 1.785156 53.933594 C 1.570312 55.007812 1.382812 56.085938 1.222656 57.171875 C 1.0625 58.257812 0.925781 59.34375 0.820312 60.4375 C 0.710938 61.527344 0.628906 62.621094 0.578125 63.714844 C 0.523438 64.8125 0.496094 65.90625 0.496094 67.003906 C 0.496094 68.101562 0.523438 69.195312 0.578125 70.292969 C 0.628906 71.386719 0.710938 72.480469 0.820312 73.570312 C 0.925781 74.664062 1.0625 75.75 1.222656 76.835938 C 1.382812 77.917969 1.570312 79 1.785156 80.074219 C 1.996094 81.152344 2.238281 82.21875 2.503906 83.285156 C 2.769531 84.347656 3.0625 85.40625 3.382812 86.453125 C 3.699219 87.503906 4.042969 88.542969 4.414062 89.578125 C 4.78125 90.609375 5.175781 91.632812 5.597656 92.644531 C 6.015625 93.65625 6.460938 94.660156 6.929688 95.652344 C 7.398438 96.644531 7.890625 97.621094 8.40625 98.589844 C 8.925781 99.554688 9.464844 100.511719 10.027344 101.449219 C 10.59375 102.390625 11.179688 103.316406 11.789062 104.230469 C 12.398438 105.140625 13.027344 106.035156 13.683594 106.917969 C 14.335938 107.796875 15.011719 108.664062 15.707031 109.511719 C 16.402344 110.359375 17.117188 111.1875 17.855469 112 C 18.589844 112.8125 19.347656 113.605469 20.121094 114.382812 C 20.898438 115.15625 21.691406 115.914062 22.503906 116.648438 C 23.316406 117.386719 24.144531 118.101562 24.992188 118.796875 C 25.839844 119.492188 26.707031 120.167969 27.585938 120.820312 C 28.464844 121.476562 29.363281 122.105469 30.273438 122.714844 C 31.1875 123.324219 32.113281 123.910156 33.054688 124.476562 C 33.992188 125.039062 34.949219 125.578125 35.914062 126.09375 C 36.882812 126.613281 37.859375 127.105469 38.851562 127.574219 C 39.84375 128.042969 40.84375 128.488281 41.859375 128.90625 C 42.871094 129.328125 43.894531 129.722656 44.925781 130.089844 C 45.960938 130.460938 47 130.804688 48.050781 131.121094 C 49.097656 131.441406 50.15625 131.734375 51.21875 132 C 52.28125 132.265625 53.351562 132.507812 54.429688 132.71875 C 55.503906 132.933594 56.582031 133.121094 57.667969 133.28125 C 58.753906 133.441406 59.839844 133.578125 60.933594 133.683594 C 62.023438 133.792969 63.117188 133.871094 64.210938 133.925781 C 65.308594 133.980469 66.402344 134.007812 67.5 134.007812 C 68.597656 134.007812 69.691406 133.980469 70.789062 133.925781 C 71.882812 133.871094 72.976562 133.792969 74.066406 133.683594 C 75.160156 133.578125 76.246094 133.441406 77.332031 133.28125 C 78.417969 133.121094 79.496094 132.933594 80.570312 132.71875 C 81.648438 132.507812 82.71875 132.265625 83.78125 132 C 84.84375 131.734375 85.902344 131.441406 86.949219 131.121094 C 88 130.804688 89.039062 130.460938 90.074219 130.089844 C 91.105469 129.722656 92.128906 129.328125 93.140625 128.90625 C 94.152344 128.488281 95.15625 128.042969 96.148438 127.574219 C 97.140625 127.105469 98.117188 126.613281 99.085938 126.09375 C 100.050781 125.578125 101.007812 125.039062 101.945312 124.476562 C 102.886719 123.910156 103.8125 123.324219 104.726562 122.714844 C 105.636719 122.105469 106.535156 121.476562 107.414062 120.820312 C 108.292969 120.167969 109.160156 119.492188 110.007812 118.796875 C 110.855469 118.101562 111.683594 117.386719 112.496094 116.648438 C 113.308594 115.914062 114.101562 115.15625 114.878906 114.382812 C 115.652344 113.605469 116.410156 112.8125 117.144531 112 C 117.882812 111.1875 118.597656 110.359375 119.292969 109.511719 C 119.988281 108.664062 120.664062 107.796875 121.316406 106.917969 C 121.972656 106.035156 122.601562 105.140625 123.210938 104.230469 C 123.820312 103.316406 124.40625 102.390625 124.972656 101.449219 C 125.535156 100.511719 126.074219 99.554688 126.59375 98.589844 C 127.109375 97.621094 127.601562 96.644531 128.070312 95.652344 C 128.539062 94.660156 128.984375 93.65625 129.402344 92.644531 C 129.824219 91.632812 130.21875 90.609375 130.585938 89.578125 C 130.957031 88.542969 131.300781 87.503906 131.617188 86.453125 C 131.9375 85.40625 132.230469 84.347656 132.496094 83.285156 C 132.761719 82.21875 133.003906 81.152344 133.214844 80.074219 C 133.429688 79 133.617188 77.917969 133.777344 76.835938 C 133.9375 75.75 134.074219 74.664062 134.179688 73.570312 C 134.289062 72.480469 134.371094 71.386719 134.421875 70.292969 C 134.476562 69.195312 134.503906 68.101562 134.503906 67.003906 C 134.503906 65.90625 134.476562 64.8125 134.421875 63.714844 C 134.371094 62.621094 134.289062 61.527344 134.179688 60.4375 C 134.074219 59.34375 133.9375 58.257812 133.777344 57.171875 C 133.617188 56.085938 133.429688 55.007812 133.214844 53.933594 C 133.003906 52.855469 132.761719 51.785156 132.496094 50.722656 C 132.230469 49.660156 131.9375 48.601562 131.617188 47.554688 C 131.300781 46.503906 130.957031 45.464844 130.585938 44.429688 C 130.21875 43.398438 129.824219 42.375 129.402344 41.363281 C 128.984375 40.347656 128.539062 39.347656 128.070312 38.355469 C 127.601562 37.363281 127.109375 36.386719 126.59375 35.417969 C 126.074219 34.453125 125.535156 33.496094 124.972656 32.558594 C 124.40625 31.617188 123.820312 30.691406 123.210938 29.777344 C 122.601562 28.867188 121.972656 27.96875 121.316406 27.089844 C 120.664062 26.207031 119.988281 25.34375 119.292969 24.496094 C 118.597656 23.648438 117.882812 22.820312 117.144531 22.007812 C 116.410156 21.195312 115.652344 20.398438 114.878906 19.625 C 114.101562 18.847656 113.308594 18.09375 112.496094 17.355469 C 111.683594 16.621094 110.855469 15.90625 110.007812 15.210938 C 109.160156 14.511719 108.292969 13.839844 107.414062 13.1875 C 106.535156 12.53125 105.636719 11.902344 104.726562 11.292969 C 103.8125 10.683594 102.886719 10.097656 101.945312 9.53125 C 101.007812 8.96875 100.050781 8.429688 99.085938 7.910156 C 98.117188 7.394531 97.140625 6.902344 96.148438 6.433594 C 95.15625 5.964844 94.152344 5.519531 93.140625 5.101562 C 92.128906 4.679688 91.105469 4.285156 90.074219 3.917969 C 89.039062 3.546875 88 3.203125 86.949219 2.886719 C 85.902344 2.566406 84.84375 2.273438 83.78125 2.007812 C 82.71875 1.742188 81.648438 1.5 80.570312 1.289062 C 79.496094 1.074219 78.417969 0.886719 77.332031 0.726562 C 76.246094 0.5625 75.160156 0.429688 74.066406 0.324219 C 72.976562 0.214844 71.882812 0.132812 70.789062 0.0820312 C 69.691406 0.0273438 68.597656 0 67.5 0 Z M 67.5 0 "/>
</g>
<g clip-path="url(#clip2)" clip-rule="nonzero">
<path style=" stroke:none;fill-rule:nonzero;fill:rgb(100%,100%,100%);fill-opacity:1;" d="M 65.632812 32.492188 L 65.632812 47.105469 L 48.492188 47.105469 C 52.488281 38.675781 58.777344 33.3125 65.632812 32.492188 Z M 65.632812 50.824219 L 65.632812 65.136719 L 44.277344 65.136719 C 44.460938 60.152344 45.378906 55.234375 46.953125 50.824219 Z M 39.179688 47.105469 C 42.285156 42.699219 46.375 39.074219 51.074219 36.527344 C 50.066406 37.632812 49.109375 38.839844 48.207031 40.148438 C 46.753906 42.257812 45.476562 44.597656 44.40625 47.105469 Z M 32.925781 65.136719 C 33.195312 60.148438 34.554688 55.230469 36.894531 50.824219 L 43.015625 50.824219 C 41.546875 55.324219 40.71875 60.125 40.554688 65.136719 Z M 65.632812 68.859375 L 65.632812 83.171875 L 46.953125 83.171875 C 45.378906 78.761719 44.460938 73.847656 44.277344 68.859375 Z M 65.632812 86.894531 L 65.632812 101.503906 C 58.777344 100.683594 52.492188 95.324219 48.492188 86.894531 Z M 44.410156 86.894531 C 45.476562 89.402344 46.753906 91.738281 48.207031 93.847656 C 49.109375 95.15625 50.066406 96.363281 51.074219 97.46875 C 46.375 94.921875 42.285156 91.296875 39.179688 86.894531 Z M 43.015625 83.171875 L 36.894531 83.171875 C 34.554688 78.765625 33.195312 73.847656 32.925781 68.859375 L 40.554688 68.859375 C 40.722656 73.871094 41.546875 78.675781 43.015625 83.171875 Z M 102.066406 65.136719 L 94.433594 65.136719 C 94.269531 60.125 93.441406 55.324219 91.972656 50.824219 L 98.097656 50.824219 C 100.433594 55.230469 101.796875 60.148438 102.066406 65.136719 Z M 102.066406 68.859375 C 101.792969 73.847656 100.433594 78.765625 98.097656 83.171875 L 91.972656 83.171875 C 93.441406 78.675781 94.269531 73.871094 94.433594 68.859375 Z M 69.355469 47.105469 L 69.355469 32.492188 C 76.210938 33.3125 82.5 38.675781 86.496094 47.105469 Z M 90.582031 47.105469 C 89.511719 44.597656 88.234375 42.257812 86.78125 40.148438 C 85.882812 38.839844 84.921875 37.632812 83.914062 36.527344 C 88.613281 39.074219 92.703125 42.699219 95.8125 47.105469 Z M 90.710938 65.136719 L 69.355469 65.136719 L 69.355469 50.824219 L 88.035156 50.824219 C 89.609375 55.234375 90.527344 60.152344 90.710938 65.136719 Z M 69.355469 86.894531 L 86.496094 86.894531 C 82.496094 95.324219 76.210938 100.683594 69.355469 101.503906 Z M 69.355469 83.171875 L 69.355469 68.859375 L 90.710938 68.859375 C 90.527344 73.847656 89.609375 78.761719 88.035156 83.171875 Z M 95.808594 86.894531 C 92.703125 91.296875 88.613281 94.921875 83.914062 97.46875 C 84.921875 96.363281 85.882812 95.15625 86.78125 93.847656 C 88.234375 91.738281 89.511719 89.402344 90.578125 86.894531 Z M 101.230469 48.789062 L 101.214844 48.765625 C 101.042969 48.449219 100.855469 48.117188 100.644531 47.753906 L 100.558594 47.605469 C 100.542969 47.574219 100.523438 47.546875 100.503906 47.519531 C 97.175781 41.894531 92.433594 37.179688 86.792969 33.878906 C 80.957031 30.464844 74.28125 28.660156 67.496094 28.660156 C 60.707031 28.660156 54.035156 30.464844 48.195312 33.878906 C 42.550781 37.183594 37.808594 41.902344 34.476562 47.53125 C 34.460938 47.550781 34.449219 47.570312 34.4375 47.59375 L 34.425781 47.613281 C 34.421875 47.617188 34.421875 47.621094 34.417969 47.625 L 34.371094 47.710938 C 30.957031 53.550781 29.152344 60.21875 29.152344 67 C 29.152344 73.335938 30.742188 79.617188 33.742188 85.167969 C 33.75 85.183594 33.757812 85.199219 33.765625 85.210938 C 33.953125 85.5625 34.164062 85.929688 34.398438 86.332031 L 34.433594 86.394531 C 34.445312 86.414062 34.457031 86.4375 34.46875 86.457031 C 37.800781 92.089844 42.546875 96.8125 48.195312 100.117188 C 54.035156 103.53125 60.707031 105.339844 67.496094 105.339844 C 74.28125 105.339844 80.953125 103.53125 86.792969 100.117188 C 92.4375 96.816406 97.175781 92.097656 100.507812 86.472656 C 100.527344 86.449219 100.542969 86.421875 100.558594 86.394531 L 100.628906 86.269531 C 100.847656 85.894531 101.035156 85.5625 101.203125 85.253906 L 101.230469 85.207031 C 101.242188 85.1875 101.253906 85.164062 101.261719 85.140625 C 104.253906 79.59375 105.835938 73.324219 105.835938 67 C 105.835938 60.667969 104.25 54.394531 101.257812 48.84375 C 101.25 48.828125 101.238281 48.808594 101.230469 48.789062 "/>
</g>
</g>
</svg>
